<mxfile host="Electron" agent="Mozilla/5.0 (Windows NT 10.0; Win64; x64) AppleWebKit/537.36 (KHTML, like Gecko) draw.io/24.7.17 Chrome/128.0.6613.36 Electron/32.0.1 Safari/537.36" version="24.7.17">
  <diagram name="페이지-1" id="6pntNZ_xDFk5u8O0aIgD">
    <mxGraphModel dx="2261" dy="884" grid="1" gridSize="10" guides="1" tooltips="1" connect="1" arrows="1" fold="1" page="1" pageScale="1" pageWidth="827" pageHeight="1169" math="0" shadow="0">
      <root>
        <mxCell id="0" />
        <mxCell id="1" parent="0" />
        <mxCell id="ZXIULsKIj3wAq2yF8ovT-8" value="" style="rounded=0;whiteSpace=wrap;html=1;" vertex="1" parent="1">
          <mxGeometry x="-340" y="140" width="1560" height="670" as="geometry" />
        </mxCell>
        <mxCell id="ZXIULsKIj3wAq2yF8ovT-7" value="" style="rounded=0;whiteSpace=wrap;html=1;" vertex="1" parent="1">
          <mxGeometry x="190" y="200" width="420" height="530" as="geometry" />
        </mxCell>
        <mxCell id="ZXIULsKIj3wAq2yF8ovT-2" value="" style="rounded=1;whiteSpace=wrap;html=1;" vertex="1" parent="1">
          <mxGeometry x="333" y="440" width="120" height="270" as="geometry" />
        </mxCell>
        <mxCell id="ZXIULsKIj3wAq2yF8ovT-3" value="&lt;font style=&quot;font-size: 20px;&quot;&gt;1&lt;/font&gt;" style="rounded=1;whiteSpace=wrap;html=1;fillColor=#fff2cc;strokeColor=#d6b656;" vertex="1" parent="1">
          <mxGeometry x="338" y="650" width="110" height="50" as="geometry" />
        </mxCell>
        <mxCell id="ZXIULsKIj3wAq2yF8ovT-4" value="&lt;font style=&quot;font-size: 20px;&quot;&gt;2&lt;/font&gt;" style="rounded=1;whiteSpace=wrap;html=1;fillColor=#fff2cc;strokeColor=#d6b656;" vertex="1" parent="1">
          <mxGeometry x="338" y="590" width="110" height="50" as="geometry" />
        </mxCell>
        <mxCell id="ZXIULsKIj3wAq2yF8ovT-5" value="&lt;font style=&quot;font-size: 20px;&quot;&gt;3&lt;/font&gt;" style="rounded=1;whiteSpace=wrap;html=1;fillColor=#fff2cc;strokeColor=#d6b656;" vertex="1" parent="1">
          <mxGeometry x="338" y="530" width="110" height="50" as="geometry" />
        </mxCell>
        <mxCell id="ZXIULsKIj3wAq2yF8ovT-6" value="" style="rounded=1;whiteSpace=wrap;html=1;strokeColor=none;" vertex="1" parent="1">
          <mxGeometry x="297" y="410" width="206" height="70" as="geometry" />
        </mxCell>
        <mxCell id="ZXIULsKIj3wAq2yF8ovT-9" value="&lt;font style=&quot;font-size: 20px;&quot;&gt;4&lt;/font&gt;" style="rounded=1;whiteSpace=wrap;html=1;fillColor=#fff2cc;strokeColor=#d6b656;" vertex="1" parent="1">
          <mxGeometry x="480" y="370" width="110" height="50" as="geometry" />
        </mxCell>
        <mxCell id="ZXIULsKIj3wAq2yF8ovT-10" value="&lt;font style=&quot;font-size: 20px;&quot;&gt;4&lt;/font&gt;" style="rounded=1;whiteSpace=wrap;html=1;fillColor=#fff2cc;strokeColor=#d6b656;" vertex="1" parent="1">
          <mxGeometry x="210" y="370" width="110" height="50" as="geometry" />
        </mxCell>
        <mxCell id="ZXIULsKIj3wAq2yF8ovT-11" style="edgeStyle=orthogonalEdgeStyle;rounded=0;orthogonalLoop=1;jettySize=auto;html=1;exitX=1;exitY=0.5;exitDx=0;exitDy=0;entryX=0.392;entryY=0.259;entryDx=0;entryDy=0;entryPerimeter=0;curved=1;" edge="1" parent="1" source="ZXIULsKIj3wAq2yF8ovT-10" target="ZXIULsKIj3wAq2yF8ovT-2">
          <mxGeometry relative="1" as="geometry" />
        </mxCell>
        <mxCell id="ZXIULsKIj3wAq2yF8ovT-13" style="edgeStyle=orthogonalEdgeStyle;rounded=0;orthogonalLoop=1;jettySize=auto;html=1;exitX=0;exitY=0.5;exitDx=0;exitDy=0;entryX=0.642;entryY=0.259;entryDx=0;entryDy=0;entryPerimeter=0;curved=1;startArrow=classic;startFill=1;endArrow=none;endFill=0;" edge="1" parent="1" source="ZXIULsKIj3wAq2yF8ovT-9" target="ZXIULsKIj3wAq2yF8ovT-2">
          <mxGeometry relative="1" as="geometry" />
        </mxCell>
        <mxCell id="ZXIULsKIj3wAq2yF8ovT-14" value="&lt;b&gt;&lt;font style=&quot;font-size: 20px;&quot;&gt;PUSH&lt;/font&gt;&lt;/b&gt;" style="text;strokeColor=none;align=center;fillColor=none;html=1;verticalAlign=middle;whiteSpace=wrap;rounded=0;" vertex="1" parent="1">
          <mxGeometry x="235" y="320" width="60" height="30" as="geometry" />
        </mxCell>
        <mxCell id="ZXIULsKIj3wAq2yF8ovT-15" value="&lt;span style=&quot;font-size: 20px;&quot;&gt;&lt;b&gt;POP&lt;/b&gt;&lt;/span&gt;" style="text;strokeColor=none;align=center;fillColor=none;html=1;verticalAlign=middle;whiteSpace=wrap;rounded=0;" vertex="1" parent="1">
          <mxGeometry x="505" y="320" width="60" height="30" as="geometry" />
        </mxCell>
        <mxCell id="ZXIULsKIj3wAq2yF8ovT-16" value="&lt;span style=&quot;font-size: 20px;&quot;&gt;&lt;b&gt;STACK&lt;/b&gt;&lt;/span&gt;" style="text;strokeColor=#666666;align=center;fillColor=#f5f5f5;html=1;verticalAlign=middle;whiteSpace=wrap;rounded=0;fontColor=#333333;" vertex="1" parent="1">
          <mxGeometry x="344.5" y="200" width="97" height="30" as="geometry" />
        </mxCell>
        <mxCell id="ZXIULsKIj3wAq2yF8ovT-17" value="&lt;font style=&quot;font-size: 17px;&quot;&gt;&lt;b&gt;TOP&lt;/b&gt;&lt;/font&gt;" style="rounded=0;whiteSpace=wrap;html=1;" vertex="1" parent="1">
          <mxGeometry x="516.04" y="535" width="80" height="40" as="geometry" />
        </mxCell>
        <mxCell id="ZXIULsKIj3wAq2yF8ovT-18" style="edgeStyle=orthogonalEdgeStyle;rounded=0;orthogonalLoop=1;jettySize=auto;html=1;entryX=1.033;entryY=0.333;entryDx=0;entryDy=0;entryPerimeter=0;dashed=1;" edge="1" parent="1" source="ZXIULsKIj3wAq2yF8ovT-17">
          <mxGeometry relative="1" as="geometry">
            <mxPoint x="453.00000000000006" y="554.9100000000001" as="targetPoint" />
          </mxGeometry>
        </mxCell>
        <mxCell id="ZXIULsKIj3wAq2yF8ovT-22" value="" style="shape=image;verticalLabelPosition=bottom;labelBackgroundColor=default;verticalAlign=top;aspect=fixed;imageAspect=0;image=data:image/png,iVBORw0KGgoAAAANSUhEUgAAAJMAAABSCAIAAADfM3FTAAANBElEQVR4Ae2c+1MT1x7A/e3O2FtbFbF6AbGgUN6y5EU2m2wSCJBsAOmAQJBSpa1yqS9QoNjKrSmiolgBrdjyKFVRbJ0iFY2G0l5CZS7T3pm2XLnptHPbOjrTXxz8A+4sJ1k2m90ku9mkoDuzkzn73bPn8f2c7/d8z8nuLlkdmVIbEf9z2Ib7YdF/BPdoiYhbHZkiHNw0sGR1ZEpDRNwfYdG/h0VbwmNORrwU6MMSHgOGiECOGzNw1zy5P8Kig6NKMFCCVp0/2lnI97qQez8W2iTTQzAW0KMlMR3YXGe8JKAVPdmF4+Te3ZgaTFUK5HgZUksSxbogqzLI1fGipgVYyBIIxoKsyiBXtwCVzkuTBHKBndR5gURbiEDuKSAnQozpmgJV1ha1vkSjL83ATBmYSaMvVetLVFlb0jUFIsRIOzooQsFbUhTC7dQnm5Oi+Wh2cYaxzOuBZhdL0XzPTRHIedaPj1e9kJOo8nxkRoaKZhdLVHlMLRDIMWmGldwTORm6GXeJPpgaTR7MJFMX0DZFIEerFrZCRnJy7cs0PFhSlGtfdm+QQM5dJxwk9OR4wQbAp2uolieQ48DJ/RYaclI0339rI5cgQzeTKxbIkbXBOU0lJ0Jyuc9tTL4UM4mV8wGLQI4zLfKNVHIcIkmyeTGl0exiolaBHKEKfxIu5M4myphU77+cWCcI5PwBRtzrQu78Jth/QkwlqLK2gFoFckAPElX+sdMXj52+KFF52bsgaJETLuQ+ghAmvbvL/3H0w8MnetzljBLMlKbAt8c4kCs0/b2gdCe53bynxUhe9f6WK59PWG32aze/7fhoaG9DaxqSW9fUbrXZea8uK2/bpWs2q81utdkvXbNl5W1jWwWFnJJR767RR6P5jNVmP95+0cf8IBsIMjmQKynfVdtwJK/oDbbd8zG/Wm/qHxyz2uwf9H7RdPRD84m+i5/902qzd1+8fbi1l3dyFTsP3hybvjH6fWX1ocrqQzdGv785Nl2x86CPrQXZuJDjhi3DWIboirjZHARjgYMnVub3D44N3fqu6JW9ZN2Zth+4OTYNzIIs9yctUeW3nLpgtdn7Lo9qsXJQlBYr77s8arXZW05d8N1zsiYHsLWdvcLK2kBmNKeEMzkIxkpf3R0Iy9t14KjVZt/6Wj0ZSV1Te11Te1f/CL/kLnz2tdVmP2j+QITkkqsTIbkHzR9YbfYLn31NlntIsyNHYMvM3cqBnEZf6g+5VHlA4H185cueAStFRwAY8Uu5yvnUarO/3dzFdPvbzV2+e2YW5A41n7Pa7HfG/9szcKfn0m3awwtOzOQjue0765mO2oYjtQ1HNpfsYOo/W/nI2PTh1l62d3HLb7XZ65rame5lFQ2xINd09DwYg71/Krma+ubahiM8hpojX/5oPt7DpM2tbzTUNLYxXWUrJ8gVlu8GDhn8FpbvhmAsUOQyjGXvneyz2uynuz7l5i3Ver/mOcJbFpZVs1WZh/z9g2MfXbjNlOHy0DcerjLdxSQnyAFIhDcGhhhAcgS8trNXOMADe2AcVgUQjAUIGwRjextarTa7qbLOXd1VNc1Wm31f40n3S9wkFHKgEFqh1/JZeEtiDgOWxyG8VGQW+jjPubcbBJb8WhuoRaLK/+TqV5/f+ra4ooaoV6ravP/t9y1f3+u7/KVYyWWPgyiKnKCFRCsk30Wb5kKOsDy2K3HwiAoHmwOLuUBgA0pR602fXP3KarOf671xqOV829mrN0Z/wDdTRqaIVRet+tgKaSHRCr2WTCHHYvfr3ePd5tbg7X4FDhvQkViVV117ZHB4Esw9Q7e+O9zagzj3Wr3q0ccMVpu9q3+EWCmCu2iFXgt0IXd+k4JwibwnhB1nCMaIkAQkCHJkuVdmIIMLuTMJAfyXh/hzlYO39LEzT1U2F3Kd8RKlroh3ayN2LIFmBXK8jDAqORFixJ9fdv1nwM9Tjb6U/PizQC4g5CAYk6jy/ERFuZ34N1ywOV6YgUKoNgek6ZoCivY5nwpP7fFIi1wUPTkIxniB546N80qc3GghDcEYIzkIxvAHL7k+na41mJheDRHmOV5GnidyEIyJECPCPtpEdEXkkITSUIEcRSHcTr2QA4WKlb6+0YNmFxPrNqYGCeSYNMNK7hM5UKLw5iMrzQY6MwtyfDVFsDleNCmQewreE+dlpAirAr7UKNjcE2FzY9FJJxNkgT4sG5KD+bEqvsb4QivHxeaAQoP2K3yxzZ/RgJOrSkWDRotcUVMy7E/Tn/J7cXIQjB1IQQLtJCnlv5MMiwL8OcYnG62D3JPdySeydwK5xRxb+jIk5WpMozNm640GjLcjW2/U6Ixy9WLVnS96C1we7zYnRrCMLIxHYO5FZWRhYkTgx04D3sllZgcWGwCZmc2u3YEby8qsEpUOf//B9yNVbgCZy5Sl3bpdFtW+2/DeUfn+r5QNV7Q1r8P4G0z44czme8kecnohp1AHAxuAp2DpNsdtU5QD9JMiHLdNeei/+6Wcgsqcgkp3uWeJRJ77jy11A7q977y0xfSCLnclmrccLQ/RmdeXWNJrLmj2IVKfPiHpuRbyVS/ktDp3csPTszND/M12hPPU6lgMcwjGxm1TPf1XG5taG5tae/qvEoSY5ORue0izJZcqN2xS5+8wtx/efDBzFSpdBctD5YpQWBkKa0IU6HPpxqWKiylv3tbU4/D4Mzsv5LL1wSOXrWdNrrGpFTBobGolk6OVe6BFvsSWHP7MzolThY2nZGuV4giVOAxJWwOL1sLiUFj0vARZLstcka75i2wgYVefYhe5IkraPDg10MJCA17IEQZBSgTK5gwYO38ybpuiJcQkp2iK6ZQtueTt1cgnV6CUXOhFdco6ZXIEkhyuSAxDlFDha7l7SsVl6ApYu1yavxQdEx3YJsXft6Y9gkRu4u7DR7OPH80+vn+30wH1+gyQPLo3TJFMX3csJNqddxES0oDA89B2iUnI5BWZ5EzlUORsyaX19EgPmONiNAkbtXHrVXGRisRIZF2Y4pXGE//77df25m7pMjm6UqZ8Rnw6cuslucvnH8hVk8mZB51T+GAHyFPZPW7pHhgAU/udgUrw7Bf5fkqaotm50+Hp2cdOPJ0TDx7PYeicuAuAEZJ50xy6Pnfp+syjB5Pt+AQ5PD37cKKDZl1Iqd3zKVMkwiT3XBpxlS052RfDSYU7YuMzYmM0sVFozHokfj2yeoNmd0fPL7/+Urf35KZlUjhEqlwm2rk8ZzStlqiIkiDIVXaPjzuBmQenLN34RyNwoW3YjNtrfdcd3K/67S2vz8yb3VzYMnQPsKTg6Zx4ME+r/e5DWrOjdOZPOWVLTm4ZiTOUb0zIjInVbtyAxkQp46KUq5Ozjwxcm/n5p1fLGhOfE8lWSeBlacXPakaT9zF1ykmuY8BBaM6pVg1Y5ixszuac3/1oGbZ01/NAzmF/hLecBeSAbT1+5AhEcVt0uFOKmyWFqUy9CqacLTn4zs3Y3IroxIwNcZqoGHTtRnVolGqZLL/bMvrtDz8acqoSnk8Th0hkz0HFz2pvJe1h6ss8uTlUzmwOkPyTa7/7ELe5eU9odNqc0xl2TN7HnaSLzdE5YS7zHMUxgt5ShETM6dQFfYBAXGVLTmG5EV/x5vrEjKgEbWhCZtabh0xNJzR1733z7+9ujU+mpRUlrhClrhSJn4V2rNB/mlRFVERJmAfHu6owCA6szRGBicMl4qEHCEw6Ju87bG54whG8DE/PTW/zeTBj+91J2hUhpTOeT5kiESa559KIq2zJpX/cKzvWFp6sW5eofSHTNDD5r98f/Pafn2a+t8/seO/c+nBlYqg4ZaUo7Zm01sjyYxDDGr9qwOJ0knh4QjfPgQkPb6c/3nL6nsP1OaerubBl9vGjB5NDzjlsiJoHN0dqREpylRxiy4WwKoC2VelGhl7UlYQlaVelGWJfqa040bW7vSej+t218fqYNdL4UHHicsj4V21f8i69yOXDyGC4dN3BI0nyYo4htmQzz9GtxJ1u0FXpTA7Qd/niXYnDnWc0PR+HpmatSVAvj0WXbkSfiVaFhKdHhUlj1khiQiDZUmmraN/29ArCsv1PeIlQ6Ha/AkVuse5+wViKpkDd34+c+TAEyQ15Sfm3aDjixfR166Tha0WRq1Lhtap67K3Cwv0p6QZibzrg5OSowXej8TOnHHXsuPvYK6ZIhEnuY7Fs5zlQbAqaj7SdVvf2Je1pjMwxhcuwSIkhCS0yFO8przkOv9aQonT5uJ6PjfGQzYvNQTAWHLPTsNxu9tAlPy+pdCXKLI7/8ojLXtccP6k9d17d0aXtOJfZ1ql4qznm5VfxJsn5NDjH+3OeuypGML3Bfd+ZT5+ZY8BECi/BuudGPoVXvdscUIrwNMNCGxy+klto7RbaI5BbrF5aICeQY/jDUHBrAdKAYHOCzQk2F1wNCDYn2FxwR1yAJo9FVKxgc4vV5v4Poz4eRX4tCPgAAAAASUVORK5CYII=;" vertex="1" parent="1">
          <mxGeometry x="690" y="200" width="147" height="82" as="geometry" />
        </mxCell>
        <mxCell id="ZXIULsKIj3wAq2yF8ovT-23" value="" style="shape=image;verticalLabelPosition=bottom;labelBackgroundColor=default;verticalAlign=top;aspect=fixed;imageAspect=0;image=data:image/png,iVBORw0KGgoAAAANSUhEUgAAAWkAAABoCAIAAAC8MpYIAAAUy0lEQVR4Ae2db0wbd5rHiVitQl71eoKS20gGkoAd0mS5lIApfxLMtKu2Qgt37O5lVe7CtitdnK1I4nQTVnISdE0DWQVIdTGwJLDbTbhbwwUSWiekEDDZUInpi5OivOvrSn2RfRMpfVEpd+OHefzwm/F4xniMHT8jK/l55vf3+zy/z++Z39gmJ89Zwy9WgBVgBawqkGO1AOdnBVgBViDPWcPs4LCLFWAFElGA2ZGIarzssAKsALOD2cEKsAKJKMDsSEQ1XnNYAVZgA9jx8p76bZWNxdVNJW4p6a/i6qZtlY0v76ln07ICrICtCqSaHQUVB5LOC90KCyoO2CocV84KZLkCKWXHy3vqdee5TSc5+shy5+bh26pAStmxrbLRJkzoVrutstFW7bhyViCbFUgpO2za49AFR4lbKq5uymbT8thZAVsVSCk7Yk1y+87bqh1XzgpkswKW2TE+OTU+OZXnrBkYHoOEefnWw4izPX3Bqdslbuno6bPhBw+Onj5rpjbzfYuVs6Gt4978/fbOrlgZjM+jXMbZbLo6MDw2c2fW5Wm1qX6u1qoCDW0di+ElX3ev+YLr9EDzDeU5a8YnpwaGx0wWMWKHy9M6c2dWVg/BC5PLjrM9fWo7yv9ne/oENCA78Hx9yy9Ds19oc2KGErdkoAId3WJ4qaGtQzdzApazZADdRi2dbO/sujd/n/YfhmbJQS21GCszTAy0o9WlJVa1cN7X3Ys1y7Js9+ioe2C75ueV8VgsXU3AA7H+geExoc/jk1MG0lly3TjsmLz1WawlN+nsgLCCznyaTi47wDNQ1iOnu2MNMwHLWTIAmjnhhJYU7Z1dk7c+S3G40d7Z9XD5S/RLl6d18I/Xk9gHX3cvwkiLy4TVi1swlW3pdiYBD8R60osdODEoO8BvZFk2WMDznDWUBUJai4YSt9Ry+Ej4wQNZlsMPHvQPjuA9y/zC4vEzH8ElWZZDs1/Ut/xSqBDeoohCwuVpjYXF8ckpWGeALNRyuK4+XP4SWUMXqOE/jWOkBlKgXHCXBzVjcaj848uDD5e/lGUZ54bQ27hvqS1o5EnPCzaifPF196Lh6BSN2y5moCrhSUxg07IsI6/xqskE7Rg1H11IMQ8MHEyJaptsSMgmsGNgeAyMiMYan5waGw8uhpdm7sx2nvn43vz9sfGgLMvQLuTHPlChxienBv94HRwG9UcfQ61oEaFvcd8as0N3LGAgKmCsKM9y3IGTAf2Sjs3X3Svc2tDh6U5vOKllB70lAYhQdrQcPkIzxKqZti6kB4bH0GB4CQeFizmODs/kOWvQn+AkUsbfO0CnLk3T+YnFwVFAMUjjuo1dMpPACvOcNdhhuidFT4KNmg79Gun58eVB3NOhU9FM05DHwO50XFRD85VjEzhdaXO0w5Qd6PHr3PSh2grtgt3HJ6fQkYCSOP1w/mMfqCHGJ6eQKbgv5uvuBR9o7+xaDC+1d3bRIlZFM2BHrLHQzgs9EVqPww5cRXFV1LID5xs47sydWXrvTduLNcNL3BLd7wg/eNBy+MjZnj4aUCBcjp4+O7+wuH525Dlr4BYaDS8YCXTHk1RrXPfo6o0jRYmQHdo5Ax6PlUNZWhBrM5nAKUT7iabBBLURNOfytMLKOTA8BulY5jPoCU5aqH8xvIRBKG0aNEcEGFSovUT3O2gNOHBaOW2UTn5ttXHPYHHBiDhkajXMTBcYmqYWpwWp1aBL6GO0SNzeChkwssAtG0Bq3LFQAdGNhcrjsAOXJiyGA8bahf4hSrEIJozZIex3ICyEwCSJ7ICO+bp7oc80XMS4FC1HfReuwhJB/RgqRIlQdPQDlEIAE5zXrhKYP24CnY/OJWMbgfe3d3aNjQfx38Q2SrB17GdDWwesIsKgdGmLpQwSOFdxQYbMdLyYBwdOWWlQucElxAHMNzoJIWCk5sbMlBc0je6EvgFNoyy0FXRLjAoN+ql7SRAfGvV199JWYETCWKiAEMBCPEJbSQ47tPXSNjBtlR007hga/TS59yzYK5QG3Z1eQmOjX9Kr2jkj+AQ4loB5NCFWDnVqLU3bMk5DVdAfDBzQA3RrhvF+fHnQ192LaZOmFDojDITOWOwDFNGVUahN9y0tSOtMJTu0S6lg7nWyo+nQr2fuzMKdAq43Wm119dE9qbU7yIWVC6WQg1RhdFchcxLYIawDQgP0rQE7zly49Jebt2iGlsNHFpeWzly4BJumi0tLkOHo6TNz9xfgnuXzu/cgAy1I07R1mm5o67gy+mc44/K03g7d7R8azXPW3Ji4eWPippBzdm4ebjsXFsO+cz3C1YXFMJRtaOvw9/RDJXCGpvuHRhcWwzCr2zu7ZufmG9o6Gto6oHKos39oFAvSVkymb0zcnJ2bp/3vHxqFt+2dXQuLYdzfhQpdntaJ6RnswOiNv2DaZIs0W//Q6F8fLmMTDW0dt0N3G9o62ju7/vpwGXQDqQUNaSUGad+5HhwarQfH2NDWsbAYhjx4EigGPTGo3OASGivPWdM/NHo7dFd4eHRj4iZajWbWTVOLCwUnpmd+9u8+NAGajBYx6KfuJa1H3Zi4CfrrjoWyA28g6FYdbSUJ7MCNA4zzaQM0TWe1kD5z4dIKOQav/SnyMbAzD5eXV1ZWFpeW+gJ/ENhR4pag1Od371l9zgJ+gA2i7cEp4TzMBGo5mAZwFX0IXBZOglUgG5CC+kf/0ChkQ4jQyqFL2BOqm8m071zPysoKnZl0CsFV6ABOQupAvnM92DGTLQrZqD60J/Q87Z5Q3PgtZYficud60EALi+GVlZWFxfD5gYCt7IDFADTEAVIT6/IC7lm0q4VQcGJ6xuVpRTPNzs3fDt2FRQuBYiyR9qoBO4zHMjA8NnnrM9juRIgI9RuxQ8i6/reEF00lbvVV3VRi2yvP6eYXK8AKGCqg8/NXdNWJNfFTyo7iao+CjAgpiqub7H4VVXnyytz8YgVYAVMKrC60CkrSjh3bXjtIeOEprvYUV9n4+tG+A3ll1fxiBViBeAqsXWKd7rRih9K5l1+tW8uLxuKq1VfR/sakv/5u9+t5pVX8YgVYAUMFqvNK6RKrckQJQ3RuZ/Bkau5Z1N6UVefvrS+uAkwcLNp/sKgSXgeKKpP8yt9Tu3nnfn6xAqxAXAUIWRAikTlriI8UsCMKDgVvpVWuqgO1Bz1NTRIfrAArkCYKeJqa3A2NO1+rj3AECBIHH3azg4Kj6qVd1e6Gxn3uuu2u3Y6iIgcfrAArkCYKFBVtd+3e565zNzS+tEtZ4yNbJEb4sJkdq485lK5sLq1y1zfuqqhME624G6wAK6BVYFdFpbu+cTNsFCqPGgAfOhsftrIDgo7ITkxp1c7X6va567R95TOsACuQVgrsc9ftfK1uzc2L3saHneygQcfO/e76RuVWhQ9WgBVIbwW2u3YrocfO/WvvXMTQwz52RIOOzaVVm3dWepqahD2OrRWeLe9e3XTyq5xTj/jFCrACqVdg08mvtrx7dWuFZw3Nioo8TU2bd1ZG7lzUfVNN6JECdlQpj4h2VEqSRPu3tcLD1Ei9r3CLrIBWgU0nvxLwIUnS5h2Va0IPLTvK7Tl2RQ5X5HA6nWVlZQI7trx7VTsGPsMKsAIbosCWd6/SpV2SpLKyMqfTCVMYprOAipwtexpNvgotHq+oR0FBQX5+vsAODjo2xEW4UVZAV4FNJ78S2JGfn19QUKBO4le0s992dhREDi07dAfAJ1kBVmCjFNBlB+KD2cGbsqwAK6CvALNDX5eNYjm3ywpkigLMDmYHK8AKJKIAsyMR1TJlZeB+sgL2KcDsSJAdJ77+/m9ff2OfYbhmViCmAjNP//b8u5GN/oRk9rLjxNffP//2CTXPyLfPH8tmUcLsoNJxet0KPHn8HI9VLox8+1x/fTLDDvk7rE5NJBk3zI4oLJgd654AUTG5KgsKROZ5dN2aefo4EtJaYceTx8+enogZiXwz98zCumiy58yOqLsjOyAkGfkWeP393IyaR+F95Hj2dITcsyj5Vw+SOaYh1do4AyugKPDk8XOt2yizXT2UeCHCkadKbPLs6QmduMOIHdoQ2yQdjLMxO6IzeQ07nq9yWtF9lejExhGIrMaTyqKhRoM6Ro3Wb2wJvpqlCsjfqQ4mugqNOyIrmYGbxWaHbT7J7IgabA07cCtElV6At7rfIUaDWEmWzgQOJawqIH8n7Luh5wjsiO59qD6Zc+oRiXlXw5RoNqUn38w90wY1UZ/HthJIMDuiOuK0X4uJJ48jYYUKi9X86lvRNur5aLUJWIWLZJECpuOOKBQIO1Sh9OMOSh81Z9I8M3vZkSPaLEqBWOyg64NqFY47kuaLSXfuDKmQ3AuvjVlUH1MUpukck+wQPTzJlkpbdvQJ36O1wQ+Up2K4ua3wQt2p1mVHxGBq+KcYb/X5mZKZ9zvWOr0Nxkqy36dVDyMupLrWqUc5es9ZrLMjJpKSNXaBHY1Hei5duvTJJ59c+ejf9r6ifo923/sXR0auKkdXyr5HmwJ2KEZafW6i3CqqG1FwD4n7Hco2uHoJn5nHfM6i5uS5xApYUgBdC56kQNlV/1ScKh47RLaqTwnVZzVrPTwp+BDY4f15OXwJ/icnrgyefCvyPdq3u0Yuvr9PSVa89/uc7Tb/fgc0n5+fEnZYsi5nZgVYAaKAwA74/Q7lO/g/8Q1e6PhxYWHh26dHTr+jfhn/nZw9zA4iX1L4zZWwApmoQCx27P3Xjy4c3ltYWPjjX/VefK9CZUcFs0MMDjPR6txnVmD9Cuiz483jV6743orsd7x96g+EHYUbxg7+zcH1G5trYAWSpYDubw5Kv7n0ybE34WcH0yju4N86TpbVuR5WYP0KaH/ruPFIzweSsl1J2ZEW+x38NxbWb2+ugRVIigK6f2Oh50gjPOhAdhQWrn3Okqq9UvF30h0OB/9tp6QYnithBRJWQP9vOzkckiT19Kif77hyZXDwwq/+MbJJ+k7XCHy+4/fvp2y/Q4cddG+G06wAK5A+CkiSFH1GGwk81Mcr0f9z/v7Q0OaGDjN/oiVayFwKQh318x3MjvRxDO4JKxBHAVPsgGjnB4eG4uLDHDGiuZgdcezDl1mBdFXAAjtyTj3KfS9ojI8oFcylmB3p6hjcL1YgjgLW2JFz6pFx9GGOGNFczI449uHLrEC6KmCZHTmnHhnsfUSpYC7F7EhXx+B+sQJxFEiEHQahhzliRHMxO+LYhy+zAumqQCLs2PSb+Vi7HlEqmEsxO9LVMbhfrEAcBRJhR85v/5fZEUdXvswKvOgKMDtMWTgQOUxl5UysgA0KNDc3z83Neb1eG+pOsMpE2JG59yx+v18mh9/vNylbIHKYzMzZWAEzCjQ3N4fDYfDHcDjc3NzscDj8fn8oFKqtrRVqMMOOYDAYCASwoNfrnZubg2rxZBITibAjc/dK/X5/MBgE+SwpG4gcSdSdq8pyBWAZw9XL6/X29fVZZcf169dpJCK4dDAYxPrtUFuSpNLS0rKyMqfT6XK5dqlHOTlyhG/RGDyjzd1RZ/pVm7u9Nnf767klNbkl7tyiqlxHpfBbx0kfMGVHbW3t9PQ0SO/1epeXl2VZRvw7HA48GQqFrl27hkQPBoPCWpH0fnKFL7YCsYKIQCCAYbHf7w8EAtPT06FQKBwOHzt2THvPIrDD4XBg6OH1eqenp7XxSxKF/f/vwuU5a/JctXnl9Vt2N2x59cCWVw8qL/Izg2vYYRB0bNnTaBocdbk7NpgdGBxSQ+qeBIgAOwKBAIaUmDmJ9uCqskEBA8+hlwKBwPLyMixv1EtRIi07MPSwO+hwRL5Ha4EdcT+Tnv7sQK7jzUsgEMB0c3NzKBRqbm6mJx0ORyByCPajkQuakxOsQFwFaPwrZBbYQT0T4w6MiNGZcT2D0GM6ctgadFhjh3HEAYFK+rMDjOH1esPhMBCdBoqyLAPpA5ED7QpvkSx4PgV0x7Y48cIoQAEhDIpeoguYsG5BKW3cgffaeIst1J/Et6buWX5g+jv4mcIOCCWAI4HIIWhKzYa3kYL9OO4QROO3JhUQHImWWj87UuaWpthBNz+M0xnEjtra2lAo5Pf7aQyCVqQn6X5HMBjE+JCaGQtyghUwowDdy4BgQfuchS5gurjRjTuYHWb0t5xHuM/0+/1wh0I/94F3mHgy1nMWhIjlfnABViDyUQ7thgUsabIsw3MW9EZdduiqmJXsOHrL7me0ulrzSVaAFUhAAUmSThz75zjPaI3vU+hV4Z7lpf1vvaT/iY83Ciol8fMdzI4EDMhFWIENUkBhx6fjxz/4udHnOygdjNNr2eG9OPvlrcs+DT7eaPnP+QefDXqEz4YxOzbICbhZViABBZS9Uum3x29MfHj8UMzPhhnzgl5dy4663L2+y18I+FDAMf/50E/3aD4bxuxIwIBchBXYIAVWn7O8+bsPJ26dOPZP+p8rpXQwTovs2CHg442Wy7Pznw+17NX7XCmzY4OcgJtlBRJQgLLj1Gk72BHBx8XZpVuXT//i8uz90HAEHMyOBIzFRViBNFJg9Z7lv6a7TsW+Z/nhNpeZV3l5uU7cAXule30XZ+WHUXDoscNxjp+zpJFrcFdYAUMFJEn64NPghz7DvVIz4PjhNpcRO3Setmj2O+z/Hq2hFHyRFWAFLChg6hkts8OCopyVFcgOBVb3O4y/g8/syA5n4FGyAhYUYHZYEIuzsgKsACrA7EApOMEKsAIWFEg7dkh8sAKsQIYoEP93w3i/wwKNOSsrkB0KpF3ckR2y8yhZgYxXIMnsKLR48N+UzHgP4gFkqwKSJMF037p16z+ox4/WHjnm71ksoqOQ2ZGtjsfjzngFmB0Zb0IeACuwIQowOzZEdm6UFch4BZgdGW9CHgArsCEKMDs2RHZulBXIeAVMsaO61Ox38HmvNOM9ggfACphTwBQ7/B1vmnnUUl5ezuwwJzvnYgUyXgFT7Dj/H8caSuKHHgmzo9hZWlRQkJ+fz7/9k/EOxQPIGgVMscN//vxhj33saL4wOfvpmTYHsyNr3I4H+gIoYIod758//+HPquPetiQcdxQU/6Lnv29f+10rxx0vgEvxELJEAdPs+JfXbWRHQUFBUdtHf/4fZkeWuB0P8wVQwAw7/g+QcDIDz2KSbAAAAABJRU5ErkJggg==;" vertex="1" parent="1">
          <mxGeometry x="690" y="370" width="361" height="104" as="geometry" />
        </mxCell>
        <mxCell id="ZXIULsKIj3wAq2yF8ovT-24" value="&lt;span style=&quot;font-size: 20px;&quot;&gt;&lt;b&gt;인터넷 브라우저의 뒤로가기&lt;/b&gt;&lt;/span&gt;" style="text;strokeColor=none;align=left;fillColor=none;html=1;verticalAlign=middle;whiteSpace=wrap;rounded=0;fontColor=#333333;" vertex="1" parent="1">
          <mxGeometry x="690" y="300" width="280" height="30" as="geometry" />
        </mxCell>
        <mxCell id="ZXIULsKIj3wAq2yF8ovT-25" value="&lt;span style=&quot;font-size: 20px;&quot;&gt;&lt;b&gt;실행취소&lt;/b&gt;&lt;/span&gt;" style="text;strokeColor=none;align=left;fillColor=none;html=1;verticalAlign=middle;whiteSpace=wrap;rounded=0;fontColor=#333333;" vertex="1" parent="1">
          <mxGeometry x="690" y="490" width="280" height="30" as="geometry" />
        </mxCell>
      </root>
    </mxGraphModel>
  </diagram>
</mxfile>
